<?xml version="1.0" encoding="UTF-8" standalone="no"?>
<!DOCTYPE svg PUBLIC "-//W3C//DTD SVG 1.1//EN"
 "http://www.w3.org/Graphics/SVG/1.1/DTD/svg11.dtd">
<!-- Generated by graphviz version 2.43.0 (0)
 -->
<!-- Title: uvms_simple_architecture Pages: 1 -->
<svg width="763pt" height="749pt"
 viewBox="0.00 0.00 762.80 748.80" xmlns="http://www.w3.org/2000/svg" xmlns:xlink="http://www.w3.org/1999/xlink">
<g id="graph0" class="graph" transform="scale(1 1) rotate(0) translate(32.4 716.4)">
<title>uvms_simple_architecture</title>
<polygon fill="white" stroke="transparent" points="-32.4,32.4 -32.4,-716.4 730.4,-716.4 730.4,32.4 -32.4,32.4"/>
<!-- operator -->
<g id="node1" class="node">
<title>operator</title>
<path fill="#e8f1ff" stroke="#2f5f9f" stroke-width="1.5" d="M349.5,-684C349.5,-684 143.5,-684 143.5,-684 137.5,-684 131.5,-678 131.5,-672 131.5,-672 131.5,-616 131.5,-616 131.5,-610 137.5,-604 143.5,-604 143.5,-604 349.5,-604 349.5,-604 355.5,-604 361.5,-610 361.5,-616 361.5,-616 361.5,-672 361.5,-672 361.5,-678 355.5,-684 349.5,-684"/>
<text text-anchor="middle" x="246.5" y="-661.6" font-family="DejaVu Sans" font-size="13.00" fill="#12324a">Operators and Clients</text>
<text text-anchor="middle" x="246.5" y="-647.6" font-family="DejaVu Sans" font-size="13.00" fill="#12324a">RViz menus + markers</text>
<text text-anchor="middle" x="246.5" y="-633.6" font-family="DejaVu Sans" font-size="13.00" fill="#12324a">ROS 2 clients</text>
<text text-anchor="middle" x="246.5" y="-619.6" font-family="DejaVu Sans" font-size="13.00" fill="#12324a">joystick / keyboard</text>
</g>
<!-- simlab -->
<g id="node2" class="node">
<title>simlab</title>
<path fill="#e9f7ef" stroke="#2f7d4f" stroke-width="2" d="M356.5,-532C356.5,-532 136.5,-532 136.5,-532 130.5,-532 124.5,-526 124.5,-520 124.5,-520 124.5,-464 124.5,-464 124.5,-458 130.5,-452 136.5,-452 136.5,-452 356.5,-452 356.5,-452 362.5,-452 368.5,-458 368.5,-464 368.5,-464 368.5,-520 368.5,-520 368.5,-526 362.5,-532 356.5,-532"/>
<text text-anchor="middle" x="246.5" y="-509.6" font-family="DejaVu Sans" font-size="13.00" fill="#12324a">uvms&#45;simlab</text>
<text text-anchor="middle" x="246.5" y="-495.6" font-family="DejaVu Sans" font-size="13.00" fill="#12324a">Backend API</text>
<text text-anchor="middle" x="246.5" y="-481.6" font-family="DejaVu Sans" font-size="13.00" fill="#12324a">controllers + planners</text>
<text text-anchor="middle" x="246.5" y="-467.6" font-family="DejaVu Sans" font-size="13.00" fill="#12324a">replay + waypoints + recording</text>
</g>
<!-- operator&#45;&gt;simlab -->
<g id="edge2" class="edge">
<title>operator&#45;&gt;simlab</title>
<path fill="none" stroke="#1f4e68" stroke-width="1.5" d="M246.5,-603.67C246.5,-603.67 246.5,-540.26 246.5,-540.26"/>
<polygon fill="#1f4e68" stroke="#1f4e68" stroke-width="1.5" points="249.3,-540.26 246.5,-532.26 243.7,-540.26 249.3,-540.26"/>
</g>
<!-- simulator -->
<g id="node3" class="node">
<title>simulator</title>
<path fill="#fff3dc" stroke="#b36a00" stroke-width="2" d="M382,-380C382,-380 111,-380 111,-380 105,-380 99,-374 99,-368 99,-368 99,-312 99,-312 99,-306 105,-300 111,-300 111,-300 382,-300 382,-300 388,-300 394,-306 394,-312 394,-312 394,-368 394,-368 394,-374 388,-380 382,-380"/>
<text text-anchor="middle" x="246.5" y="-357.6" font-family="DejaVu Sans" font-size="13.00" fill="#12324a">uvms&#45;simulator</text>
<text text-anchor="middle" x="246.5" y="-343.6" font-family="DejaVu Sans" font-size="13.00" fill="#12324a">ros2_control_blue_reach_5</text>
<text text-anchor="middle" x="246.5" y="-329.6" font-family="DejaVu Sans" font-size="13.00" fill="#12324a">launch + robot description</text>
<text text-anchor="middle" x="246.5" y="-315.6" font-family="DejaVu Sans" font-size="13.00" fill="#12324a">ros2_control + sim/hardware interfaces</text>
</g>
<!-- simlab&#45;&gt;simulator -->
<g id="edge3" class="edge">
<title>simlab&#45;&gt;simulator</title>
<path fill="none" stroke="#1f4e68" stroke-width="1.5" d="M205.83,-451.67C205.83,-451.67 205.83,-388.26 205.83,-388.26"/>
<polygon fill="#1f4e68" stroke="#1f4e68" stroke-width="1.5" points="208.63,-388.26 205.83,-380.26 203.03,-388.26 208.63,-388.26"/>
</g>
<!-- dynamics -->
<g id="node4" class="node">
<title>dynamics</title>
<path fill="#f3ecff" stroke="#7353a6" stroke-width="1.5" d="M686,-532C686,-532 449,-532 449,-532 443,-532 437,-526 437,-520 437,-520 437,-464 437,-464 437,-458 443,-452 449,-452 449,-452 686,-452 686,-452 692,-452 698,-458 698,-464 698,-464 698,-520 698,-520 698,-526 692,-532 686,-532"/>
<text text-anchor="middle" x="567.5" y="-509.6" font-family="DejaVu Sans" font-size="13.00" fill="#12324a">Generated Dynamics Sources</text>
<text text-anchor="middle" x="567.5" y="-495.6" font-family="DejaVu Sans" font-size="13.00" fill="#12324a">Floating&#45;KinDyn&#45;Graph</text>
<text text-anchor="middle" x="567.5" y="-481.6" font-family="DejaVu Sans" font-size="13.00" fill="#12324a">diff_uv</text>
<text text-anchor="middle" x="567.5" y="-467.6" font-family="DejaVu Sans" font-size="13.00" fill="#12324a">models for controllers + simulator</text>
</g>
<!-- simlab&#45;&gt;dynamics -->
<!-- simulator&#45;&gt;simlab -->
<g id="edge4" class="edge">
<title>simulator&#45;&gt;simlab</title>
<path fill="none" stroke="#1f4e68" stroke-width="1.5" stroke-dasharray="5,2" d="M287.17,-380.33C287.17,-380.33 287.17,-443.74 287.17,-443.74"/>
<polygon fill="#1f4e68" stroke="#1f4e68" stroke-width="1.5" points="284.37,-443.74 287.17,-451.74 289.97,-443.74 284.37,-443.74"/>
</g>
<!-- hardware -->
<g id="node5" class="node">
<title>hardware</title>
<path fill="#eef2f5" stroke="#52616b" stroke-width="1.5" d="M377,-228C377,-228 116,-228 116,-228 110,-228 104,-222 104,-216 104,-216 104,-160 104,-160 104,-154 110,-148 116,-148 116,-148 377,-148 377,-148 383,-148 389,-154 389,-160 389,-160 389,-216 389,-216 389,-222 383,-228 377,-228"/>
<text text-anchor="middle" x="246.5" y="-205.6" font-family="DejaVu Sans" font-size="13.00" fill="#12324a">Robot and Sensors</text>
<text text-anchor="middle" x="246.5" y="-191.6" font-family="DejaVu Sans" font-size="13.00" fill="#12324a">Reach manipulator</text>
<text text-anchor="middle" x="246.5" y="-177.6" font-family="DejaVu Sans" font-size="13.00" fill="#12324a">BlueROV vehicle</text>
<text text-anchor="middle" x="246.5" y="-163.6" font-family="DejaVu Sans" font-size="13.00" fill="#12324a">camera + IMU/DVL/pressure + mocap</text>
</g>
<!-- simulator&#45;&gt;hardware -->
<g id="edge5" class="edge">
<title>simulator&#45;&gt;hardware</title>
<path fill="none" stroke="#1f4e68" stroke-width="1.5" d="M199,-299.67C199,-299.67 199,-236.26 199,-236.26"/>
<polygon fill="#1f4e68" stroke="#1f4e68" stroke-width="1.5" points="201.8,-236.26 199,-228.26 196.2,-236.26 201.8,-236.26"/>
</g>
<!-- dynamics&#45;&gt;simlab -->
<g id="edge7" class="edge">
<title>dynamics&#45;&gt;simlab</title>
<path fill="none" stroke="#1f4e68" stroke-width="1.5" stroke-dasharray="1,5" d="M436.94,-492C436.94,-492 376.66,-492 376.66,-492"/>
<polygon fill="#1f4e68" stroke="#1f4e68" stroke-width="1.5" points="376.66,-489.2 368.66,-492 376.66,-494.8 376.66,-489.2"/>
</g>
<!-- dynamics&#45;&gt;simulator -->
<g id="edge8" class="edge">
<title>dynamics&#45;&gt;simulator</title>
<path fill="none" stroke="#1f4e68" stroke-width="1.5" stroke-dasharray="1,5" d="M436.88,-472C405.7,-472 381.25,-472 381.25,-472 381.25,-472 381.25,-388.32 381.25,-388.32"/>
<polygon fill="#1f4e68" stroke="#1f4e68" stroke-width="1.5" points="384.05,-388.32 381.25,-380.32 378.45,-388.32 384.05,-388.32"/>
</g>
<!-- hardware&#45;&gt;simulator -->
<g id="edge6" class="edge">
<title>hardware&#45;&gt;simulator</title>
<path fill="none" stroke="#1f4e68" stroke-width="1.5" stroke-dasharray="5,2" d="M294,-228.33C294,-228.33 294,-291.74 294,-291.74"/>
<polygon fill="#1f4e68" stroke="#1f4e68" stroke-width="1.5" points="291.2,-291.74 294,-299.74 296.8,-291.74 291.2,-291.74"/>
</g>
<!-- legend -->
<g id="node6" class="node">
<title>legend</title>
<path fill="#ffffff" stroke="#cccccc" stroke-width="1.5" d="M481,-76C481,-76 12,-76 12,-76 6,-76 0,-70 0,-64 0,-64 0,-12 0,-12 0,-6 6,0 12,0 12,0 481,0 481,0 487,0 493,-6 493,-12 493,-12 493,-64 493,-64 493,-70 487,-76 481,-76"/>
<text text-anchor="middle" x="246.5" y="-35.2" font-family="DejaVu Sans" font-size="11.00" fill="#12324a">solid = commands/control &#160;&#160;&#160;&#160;dashed = state/telemetry &#160;&#160;&#160;&#160;dotted = models/profiles</text>
</g>
<!-- hardware&#45;&gt;legend -->
</g>
</svg>
